<?xml version="1.0" encoding="iso-8859-1"?>
<!-- Generator: Adobe Illustrator 19.0.0, SVG Export Plug-In . SVG Version: 6.00 Build 0)  -->
<svg version="1.1" id="Layer_1" xmlns="http://www.w3.org/2000/svg" xmlns:xlink="http://www.w3.org/1999/xlink" x="0px" y="0px"
	 viewBox="0 0 505.821 505.821" style="enable-background:new 0 0 505.821 505.821;" xml:space="preserve">
<g transform="translate(2 2)">
	<g>
		<g>
			<path d="M344.504,29.8l-1.345-1.345l0,0L316.676,1.972L-2,320.648l28.143,28.143c-6.08,18.045,9.158,45.351,30.119,66.312
				c17.655,18.538,39.724,31.779,57.379,31.779c6.179,0,12.359-1.766,16.772-6.179l307.913-306.178
				c2.791-1.44,4.577-3.219,5.466-4.553c16.772-16.772,0-50.317-24.717-75.034C394.579,30.441,361.421,13.768,344.504,29.8z
				 M316.676,26.69L330.8,40.814L36.841,334.772l-14.124-14.124L316.676,26.69z M118.055,428.345
				c-4.414,4.414-27.366-1.766-50.317-24.717c-22.952-23.834-29.131-45.903-24.717-50.317L338.615,57.716
				c0.049,0.199,0.106,0.399,0.158,0.599c0.138,2.258,0.854,3.938,0.854,6.334c5.297,13.241,15.007,27.366,27.366,39.724
				c11.599,10.826,23.198,19.619,34.798,25.194c2.231,1.134,4.461,2.162,6.692,3.054c1.322,0.588,2.565,1.095,3.752,1.544
				l-25.936,25.936c-7.152,2-27.79-5.068-48.437-25.715c-6.179-6.179-11.476-12.359-15.89-19.421l-6.179-8.828L78.331,343.6
				l3.531,6.179c4.414,7.945,10.593,15.007,17.655,22.069c14.729,14.729,31.684,24.992,46,29.034L118.055,428.345z M158.662,385.972
				c-9.71,0-28.248-7.945-46.786-26.483c-4.414-4.414-7.945-8.828-11.476-13.241l212.745-210.979
				c3.531,4.414,7.062,8.828,11.476,13.241c13.046,13.046,29.516,24.364,44.352,28.917l-33.247,33.247
				c-12.338-7.474-29.368-8.807-48.181-3.019c-22.069,6.179-44.138,20.303-63.559,39.724c-37.957,37.957-53.003,84.776-36.366,111.4
				l-27.193,27.193H158.662z M237.228,258.855c16.772-17.655,37.076-30.014,55.614-35.31c6.179-1.766,12.359-2.648,17.655-2.648
				c4.414,0,8.828,0.883,12.359,2.648L201.035,345.366C193.09,325.062,207.214,288.869,237.228,258.855z M432.327,118.485
				c-1.6-0.617-3.449-0.871-5.306-0.871c-3.531,0-7.062-0.883-12.359-2.648c-10.593-4.414-22.952-13.241-33.545-23.834
				c-2.609-2.408-5.026-4.911-7.27-7.46c-16.227-20.079-20.401-37.255-16.564-41.092c4.414-4.414,26.483,1.766,50.317,25.6
				C430.534,91.995,436.721,114.047,432.327,118.485z"/>
			<path d="M375.821,62c-3.531,3.531-3.531,8.828,0,12.359l24.717,24.717c1.766,1.766,3.531,2.648,6.179,2.648
				s5.297-0.883,6.179-2.648c3.531-3.531,3.531-8.828,0-12.359L388.179,62C384.648,58.469,379.352,58.469,375.821,62z"/>
			<path d="M168.372,482.193c-5.297,0-8.828,3.531-8.828,8.828s3.531,8.828,8.828,8.828c4.414,0,8.828-3.531,8.828-8.828
				C177.2,486.607,172.786,482.193,168.372,482.193z"/>
			<path d="M238.993,482.193c-5.297,0-8.828,3.531-8.828,8.828s3.531,8.828,8.828,8.828c4.414,0,8.828-3.531,8.828-8.828
				C247.821,486.607,243.407,482.193,238.993,482.193z"/>
			<path d="M274.303,482.193c-4.414,0-8.828,3.531-8.828,8.828s4.414,8.828,8.828,8.828c4.414,0,8.828-3.531,8.828-8.828
				C283.131,486.607,278.717,482.193,274.303,482.193z"/>
			<path d="M203.683,482.193c-5.297,0-8.828,3.531-8.828,8.828s3.531,8.828,8.828,8.828c4.414,0,8.828-3.531,8.828-8.828
				C212.51,486.607,208.097,482.193,203.683,482.193z"/>
			<path d="M133.062,482.193c-5.297,0-8.828,3.531-8.828,8.828s3.531,8.828,8.828,8.828c4.414,0,8.828-3.531,8.828-8.828
				C141.89,486.607,137.476,482.193,133.062,482.193z"/>
			<path d="M97.752,482.193c-5.297,0-8.828,3.531-8.828,8.828s3.531,8.828,8.828,8.828c4.414,0,8.828-3.531,8.828-8.828
				C106.579,486.607,102.166,482.193,97.752,482.193z"/>
			<path d="M66.855,477.779c-4.414-1.766-9.71,0-11.476,4.414c-1.766,4.414,0,9.71,4.414,11.476
				c0.883,0.883,1.766,0.883,3.531,0.883c3.531,0,6.179-1.766,7.945-5.297C73.035,484.841,71.269,479.545,66.855,477.779z"/>
			<path d="M35.959,429.228c0-4.414-4.414-8.828-8.828-8.828c-5.297,0-8.828,4.414-8.828,8.828c0,5.297,3.531,8.828,8.828,8.828
				C31.545,438.055,35.959,434.524,35.959,429.228z"/>
			<path d="M32.428,454.828c-4.414,2.648-5.297,8.828-2.648,12.359c1.766,2.648,4.414,4.414,7.945,4.414
				c0.883,0,2.648-0.883,4.414-1.766c4.414-2.648,5.297-7.945,2.648-12.359C42.138,453.062,36.841,452.179,32.428,454.828z"/>
			<path d="M380.234,482.193c-5.297,0-8.828,3.531-8.828,8.828s3.531,8.828,8.828,8.828c4.414,0,8.828-3.531,8.828-8.828
				C389.062,486.607,384.648,482.193,380.234,482.193z"/>
			<path d="M415.545,482.193c-5.297,0-8.828,3.531-8.828,8.828s3.531,8.828,8.828,8.828c4.414,0,8.828-3.531,8.828-8.828
				C424.372,486.607,419.959,482.193,415.545,482.193z"/>
			<path d="M344.924,482.193c-5.297,0-8.828,3.531-8.828,8.828s3.531,8.828,8.828,8.828c4.414,0,8.828-3.531,8.828-8.828
				C353.752,486.607,349.338,482.193,344.924,482.193z"/>
			<path d="M309.614,482.193c-4.414,0-8.828,3.531-8.828,8.828s4.414,8.828,8.828,8.828c4.414,0,8.828-3.531,8.828-8.828
				C318.441,486.607,314.028,482.193,309.614,482.193z"/>
			<path d="M353.752,454.828c-5.297,0-8.828,3.531-8.828,8.828c0,5.297,3.531,8.828,8.828,8.828c5.297,0,8.828-3.531,8.828-8.828
				C362.579,458.359,359.048,454.828,353.752,454.828z"/>
			<path d="M389.062,454.828c-5.297,0-8.828,3.531-8.828,8.828c0,5.297,3.531,8.828,8.828,8.828c5.297,0,8.828-3.531,8.828-8.828
				C397.89,458.359,394.359,454.828,389.062,454.828z"/>
			<path d="M468.51,481.31c-5.297,0-8.828,3.531-8.828,8.828c0,5.297,3.531,8.828,8.828,8.828c5.297,0,8.828-3.531,8.828-8.828
				C477.338,484.841,473.807,481.31,468.51,481.31z"/>
			<path d="M494.993,481.31c-5.297,0-8.828,3.531-8.828,8.828c0,5.297,3.531,8.828,8.828,8.828c5.297,0,8.828-3.531,8.828-8.828
				C503.821,484.841,500.29,481.31,494.993,481.31z"/>
			<path d="M318.441,454.828c-5.297,0-8.828,3.531-8.828,8.828c0,5.297,3.531,8.828,8.828,8.828c5.297,0,8.828-3.531,8.828-8.828
				C327.269,458.359,323.738,454.828,318.441,454.828z"/>
			<path d="M291.959,454.828c-5.297,0-8.828,3.531-8.828,8.828c0,5.297,3.531,8.828,8.828,8.828c5.297,0,8.828-3.531,8.828-8.828
				C300.786,458.359,297.255,454.828,291.959,454.828z"/>
			<path d="M274.303,463.655c0-5.297-3.531-8.828-8.828-8.828c-5.297,0-8.828,3.531-8.828,8.828c0,5.297,3.531,8.828,8.828,8.828
				C270.772,472.483,274.303,468.952,274.303,463.655z"/>
			<path d="M238.993,463.655c0-5.297-3.531-8.828-8.828-8.828c-5.297,0-8.828,3.531-8.828,8.828c0,5.297,3.531,8.828,8.828,8.828
				C235.462,472.483,238.993,468.952,238.993,463.655z"/>
			<path d="M203.683,463.655c0-5.297-3.531-8.828-8.828-8.828s-8.828,3.531-8.828,8.828c0,5.297,3.531,8.828,8.828,8.828
				S203.683,468.952,203.683,463.655z"/>
			<path d="M168.372,454.828c-5.297,0-8.828,3.531-8.828,8.828c0,5.297,3.531,8.828,8.828,8.828c5.297,0,8.828-3.531,8.828-8.828
				C177.2,458.359,173.669,454.828,168.372,454.828z"/>
			<path d="M141.89,454.828c-5.297,0-8.828,3.531-8.828,8.828c0,5.297,3.531,8.828,8.828,8.828s8.828-3.531,8.828-8.828
				C150.717,458.359,147.186,454.828,141.89,454.828z"/>
			<path d="M115.407,454.828c-5.297,0-8.828,3.531-8.828,8.828c0,5.297,3.531,8.828,8.828,8.828c5.297,0,8.828-3.531,8.828-8.828
				C124.235,458.359,120.703,454.828,115.407,454.828z"/>
			<path d="M97.752,463.655c0-5.297-3.531-8.828-8.828-8.828s-8.828,3.531-8.828,8.828c0,5.297,3.531,8.828,8.828,8.828
				S97.752,468.952,97.752,463.655z"/>
			<path d="M62.441,454.828c5.297,0,8.828-3.531,8.828-8.828c0-5.297-3.531-8.828-8.828-8.828c-5.297,0-8.828,3.531-8.828,8.828
				C53.614,451.297,57.145,454.828,62.441,454.828z"/>
		</g>
	</g>
</g>
<g>
</g>
<g>
</g>
<g>
</g>
<g>
</g>
<g>
</g>
<g>
</g>
<g>
</g>
<g>
</g>
<g>
</g>
<g>
</g>
<g>
</g>
<g>
</g>
<g>
</g>
<g>
</g>
<g>
</g>
</svg>
